<svg xmlns="http://www.w3.org/2000/svg" viewBox="0 0 416 350">
  <title>devit-logo</title>
  <path d="M598.4,461h0a39.2,39.2,0,0,0-39.2,39.2V543h80V501.8A40.8,40.8,0,0,0,598.4,461Zm31.3,69h-61V504.3A30.3,30.3,0,0,1,599,474h.4a30.3,30.3,0,0,1,30.3,30.3Z" transform="translate(-431 -193)"/>
  <path d="M602.2,376.3v55.4h28.2v-62h8.8v74.5H559.3V372.5H568v59.2h25.6V376.3Z" transform="translate(-431 -193)"/>
  <rect x="225" y="78.5" width="191" height="53" fill="#ffc612"/>
  <path d="M639.7,322.6,559.8,361V347.7s60.6-30.1,70.1-32.2v.8c-9.4-2.3-70.1-30.9-70.1-30.9V272.1L639.7,309Z" transform="translate(-431 -193)"/>
  <polygon points="208.2 104.7 147.2 78.5 208.2 78.5 208.2 104.7" fill="#77797a"/>
  <rect y="78.5" width="112" height="53" fill="#ffc612"/>
  <circle cx="169" cy="20" r="20" fill="#77797a"/>
</svg>